<?xml version="1.0" encoding="iso-8859-1"?>
<!-- Uploaded to: SVG Repo, www.svgrepo.com, Generator: SVG Repo Mixer Tools -->
<svg height="800px" width="800px" version="1.1" id="Layer_1" xmlns="http://www.w3.org/2000/svg" xmlns:xlink="http://www.w3.org/1999/xlink" 
	 viewBox="0 0 512 512" xml:space="preserve">
<path style="fill:#FFE29E;" d="M258.636,8.192v495.616C394.294,502.403,503.83,391.985,503.83,256S394.294,9.597,258.636,8.192z"/>
<path style="fill:#FFF1CF;" d="M258.636,8.192C370.23,9.902,460.255,120.2,460.255,256S370.23,502.098,258.636,503.808
	c-0.871,0.011-1.754,0.022-2.636,0.022c-48.76,0-94.23-14.096-132.564-38.411L8.17,503.83l38.411-115.265
	C22.267,350.23,8.17,304.76,8.17,256C8.17,119.133,119.133,8.17,256,8.17C256.882,8.17,257.765,8.181,258.636,8.192z"/>
<path style="fill:#E44670;" d="M240.484,189.386c1.939-0.305,3.922-0.458,5.937-0.458c21.667,0,39.228,17.571,39.228,39.239
	c0,54.512-72.388,94.284-73.521,94.894L240.484,189.386z"/>
<path style="fill:#FF6288;" d="M240.484,189.386c13.236,2.887,23.378,19.151,23.378,38.781c0,54.424-50.775,94.154-51.734,94.894
	c-0.011,0.011-73.543-39.958-73.543-94.894c0-21.667,17.561-39.239,39.228-39.239c14.772,0,27.615,8.181,34.304,20.251
	C217.891,198.754,228.251,191.237,240.484,189.386z"/>
<path d="M212.117,195.484c-8.833-9.275-21.184-14.723-34.303-14.723c-26.136,0-47.399,21.264-47.399,47.4
	c0,59.125,74.625,100.359,77.801,102.085c1.217,0.66,2.559,0.991,3.901,0.991s2.684-0.331,3.901-0.991
	c3.177-1.727,77.801-42.96,77.801-102.085c0-26.136-21.263-47.4-47.399-47.4C233.301,180.762,220.951,186.21,212.117,195.484z
	 M277.479,228.161c0,42.486-50.737,76.512-65.367,85.439c-14.638-8.908-65.356-42.853-65.356-85.439
	c0-17.127,13.933-31.06,31.059-31.06c11.268,0,21.675,6.144,27.158,16.034c1.44,2.597,4.176,4.208,7.146,4.208
	c2.971,0,5.706-1.611,7.146-4.208c5.483-9.89,15.888-16.034,27.157-16.034C263.546,197.103,277.479,211.035,277.479,228.161z"/>
<path d="M114.238,188.932c0-4.513-3.658-8.17-8.17-8.17H89.809c-4.512,0-8.17,3.657-8.17,8.17c0,4.499,3.636,8.146,8.129,8.168
	v117.8c-4.494,0.023-8.129,3.669-8.129,8.168c0,4.513,3.658,8.17,8.17,8.17h16.259c4.512,0,8.17-3.657,8.17-8.17
	c0-4.499-3.636-8.146-8.13-8.168V197.1C110.602,197.079,114.238,193.431,114.238,188.932z"/>
<path d="M373.442,331.238c30.507,0,55.327-23.761,55.327-52.967v-81.172c4.494-0.023,8.129-3.669,8.129-8.168
	c0-4.513-3.658-8.17-8.17-8.17h-16.259c-4.512,0-8.17,3.657-8.17,8.17c0,4.499,3.636,8.146,8.13,8.168v81.172
	c0,20.196-17.49,36.627-38.986,36.627c-21.491,0-38.974-16.431-38.974-36.627v-81.172c4.494-0.023,8.129-3.669,8.129-8.168
	c0-4.513-3.658-8.17-8.17-8.17h-16.259c-4.512,0-8.17,3.657-8.17,8.17c0,4.499,3.636,8.146,8.13,8.168v81.172
	C318.126,307.478,342.941,331.238,373.442,331.238z"/>
<path d="M437.019,74.981C388.667,26.628,324.38,0,256,0S123.333,26.628,74.981,74.981S0,187.621,0,256
	c0,47.358,12.994,93.473,37.618,133.632L0.419,501.247c-0.978,2.935-0.215,6.172,1.974,8.361C3.95,511.163,6.038,512,8.171,512
	c0.864,0,1.735-0.137,2.583-0.419l111.614-37.198C162.527,499.006,208.642,512,256,512c62.11,0,122.017-22.533,168.686-63.448
	c3.393-2.974,3.732-8.138,0.757-11.53c-2.975-3.392-8.136-3.732-11.53-0.757C370.226,474.566,314.145,495.66,256,495.66
	c-45.56,0-89.889-12.844-128.193-37.143c-2.073-1.316-4.63-1.629-6.96-0.852l-99.76,33.248l33.248-99.76
	c0.777-2.33,0.464-4.885-0.852-6.96C29.184,345.889,16.34,301.559,16.34,256c0-132.149,107.51-239.66,239.66-239.66
	S495.66,123.851,495.66,256c0,58.147-21.093,114.227-59.394,157.913c-2.975,3.392-2.636,8.555,0.757,11.53
	c3.392,2.974,8.555,2.636,11.529-0.757C489.468,378.018,512,318.112,512,256C512,187.621,485.372,123.333,437.019,74.981z"/>
</svg>